<svg xmlns="http://www.w3.org/2000/svg" width="512" height="512" viewBox="0 0 512 512">
  <rect width="512" height="512" rx="100" fill="#4285f4" />
  <g transform="translate(96, 96) scale(0.63)">
    <path d="M256 48C141.1 48 48 141.1 48 256s93.1 208 208 208 208-93.1 208-208S370.9 48 256 48zm0 398.7c-105.1 0-190.7-85.5-190.7-190.7 0-105.1 85.5-190.7 190.7-190.7 105.1 0 190.7 85.5 190.7 190.7 0 105.1-85.6 190.7-190.7 190.7z" fill="#FFFFFF"/>
    <path d="M256 96c-88.4 0-160 71.6-160 160s71.6 160 160 160 160-71.6 160-160S344.4 96 256 96zm0 192c-17.7 0-32-14.3-32-32s14.3-32 32-32 32 14.3 32 32-14.3 32-32 32z" fill="#FFFFFF"/>
    <path d="M256 128c-70.7 0-128 57.3-128 128s57.3 128 128 128 128-57.3 128-128-57.3-128-128-128zm0 224c-52.9 0-96-43.1-96-96s43.1-96 96-96 96 43.1 96 96-43.1 96-96 96z" fill="#FFFFFF"/>
    <path d="M288.8 232h-65.5c-5.5 0-7.5-3.8-4.3-8.4l26.6-39c3.1-4.6 8.2-4.6 11.4 0l36.2 54.2c3.1 4.6 1.1 8.4-4.4 8.4z" fill="#FFFFFF"/>
    <path d="M223.2 296h65.5c5.5 0 7.5 3.8 4.3 8.4l-26.6 39c-3.1 4.6-8.2 4.6-11.4 0l-36.2-54.2c-3.1-4.6-1.1-8.4 4.4-8.4z" fill="#FFFFFF"/>
  </g>
</svg> 